<?xml version="1.0"?>
<svg xmlns="http://www.w3.org/2000/svg" viewBox="0 0 512 512" width="512px" height="512px"><path d="m277.140625 0-113.140625 158.691406v44.773438l-19.507812 57.976562-144.492188 144.492188v106.066406h115v-42h43v-42h32.984375l59.628906-60.511719 57.921875-19.488281h44.773438l158.691406-113.140625v-56.367187l-178.492188-178.492188zm-102.371094 265.527344 10.730469-31.894532 92.867188 92.863282-31.894532 10.734375zm3.660157 132.472656h-50.429688v42h-43v42h-55v-63.640625l127.589844-127.585937 63.714844 63.714843zm303.570312-178.59375-138.292969 98.59375h-31.414062l-118.292969-118.292969v-31.414062l98.597656-138.292969h28.484375l160.917969 160.917969zm0 0" fill="#4f6b54"/><path d="m356.617188 235.242188 74.25-53.027344-101.082032-101.082032-53.027344 74.25zm-23-107.851563 50.996093 50.992187-24.753906 17.675782-43.917969-43.917969zm0 0" fill="#4f6b54"/></svg>
